<?xml version="1.0" encoding="UTF-8"?>
<svg id="Layer_1" data-name="Layer 1" xmlns="http://www.w3.org/2000/svg" viewBox="0 0 100 100">
  <defs>
    <style>
      .cls-1 {
        fill: #fff;
      }

      .cls-2 {
        fill: #2f2f2f;
      }
    </style>
  </defs>
  <rect class="cls-1" width="100" height="100"/>
  <g>
    <path class="cls-2" d="m31.7,33.88l2.81,8.84h.11l2.82-8.84h2.73l-4.01,11.64h-3.17l-4.02-11.64h2.73Z"/>
    <path class="cls-2" d="m44.02,33.88v11.64h-2.46v-11.64h2.46Z"/>
    <path class="cls-2" d="m46.05,45.51v-11.64h7.84v2.03h-5.38v2.77h4.98v2.03h-4.98v2.78h5.4v2.03h-7.86Z"/>
    <path class="cls-2" d="m58.47,45.51l-3.33-11.64h2.69l1.93,8.08h.1l2.12-8.08h2.3l2.12,8.1h.1l1.93-8.1h2.69l-3.33,11.64h-2.4l-2.22-7.61h-.09l-2.21,7.61h-2.4Z"/>
    <path class="cls-2" d="m13.5,64.71v-11.64h4.59c.88,0,1.63.17,2.26.5.62.34,1.1.8,1.42,1.39s.49,1.28.49,2.05-.17,1.46-.5,2.05c-.33.59-.82,1.05-1.45,1.38-.63.33-1.39.49-2.29.49h-2.93v-1.97h2.53c.47,0,.86-.08,1.17-.25.31-.17.54-.39.69-.69.15-.29.23-.63.23-1.01s-.08-.72-.23-1.01c-.15-.29-.39-.52-.7-.68s-.7-.24-1.18-.24h-1.66v9.62h-2.46Z"/>
    <path class="cls-2" d="m23.86,64.71v-11.64h4.59c.88,0,1.63.16,2.25.47s1.1.75,1.43,1.32.49,1.24.49,2.01-.17,1.44-.5,1.99c-.33.55-.82.98-1.45,1.28-.63.3-1.39.44-2.29.44h-3.07v-1.98h2.68c.47,0,.86-.06,1.17-.19.31-.13.54-.32.7-.58.15-.26.23-.58.23-.96s-.08-.71-.23-.98c-.15-.26-.39-.47-.7-.61-.31-.14-.71-.21-1.18-.21h-1.66v9.62h-2.46Zm6.28-5.3l2.89,5.3h-2.72l-2.83-5.3h2.65Z"/>
    <path class="cls-2" d="m45.06,58.89c0,1.27-.24,2.35-.72,3.24-.48.89-1.13,1.57-1.95,2.04s-1.75.7-2.78.7-1.96-.24-2.78-.71c-.82-.47-1.47-1.15-1.95-2.04-.48-.89-.72-1.97-.72-3.23s.24-2.35.72-3.24c.48-.89,1.13-1.57,1.95-2.04.82-.47,1.75-.7,2.78-.7s1.95.23,2.78.7,1.48,1.15,1.95,2.04c.48.89.72,1.97.72,3.24Zm-2.49,0c0-.82-.12-1.51-.37-2.08s-.59-.99-1.03-1.28-.96-.44-1.56-.44-1.11.15-1.56.44c-.44.29-.79.72-1.03,1.28-.24.56-.37,1.26-.37,2.08s.12,1.52.37,2.08c.24.56.59.99,1.03,1.28.44.29.96.44,1.56.44s1.11-.15,1.56-.44c.44-.29.79-.72,1.03-1.28s.37-1.26.37-2.08Z"/>
    <path class="cls-2" d="m51.54,53.08h2.43v8.11c0,.75-.17,1.4-.5,1.95-.33.55-.8.98-1.4,1.28-.59.3-1.29.45-2.07.45-.7,0-1.34-.12-1.91-.37-.57-.25-1.02-.63-1.36-1.14-.33-.51-.5-1.15-.49-1.92h2.45c0,.31.07.57.19.79s.28.38.49.5c.21.12.46.17.75.17.3,0,.56-.07.77-.2s.37-.32.48-.58.17-.57.17-.94v-8.11Z"/>
    <path class="cls-2" d="m56,64.71v-11.64h7.84v2.03h-5.38v2.77h4.98v2.03h-4.98v2.78h5.4v2.03h-7.86Z"/>
    <path class="cls-2" d="m76.06,57.15h-2.49c-.05-.32-.14-.61-.28-.86-.14-.25-.32-.47-.54-.65-.22-.18-.47-.31-.76-.41s-.6-.14-.93-.14c-.6,0-1.13.15-1.57.45-.45.3-.79.73-1.04,1.29-.25.57-.37,1.25-.37,2.06s.12,1.53.37,2.09.6.99,1.04,1.28c.45.29.96.43,1.55.43.33,0,.64-.04.92-.13s.53-.21.75-.38.4-.37.55-.62c.15-.24.25-.52.3-.83h2.49c-.06.55-.22,1.06-.48,1.55-.25.49-.6.94-1.03,1.32-.43.39-.94.7-1.53.92-.59.22-1.26.34-2.01.34-1.04,0-1.96-.24-2.78-.71-.82-.47-1.46-1.15-1.93-2.04-.47-.89-.71-1.97-.71-3.23s.24-2.35.72-3.24c.48-.89,1.12-1.57,1.94-2.04s1.74-.7,2.76-.7c.67,0,1.3.09,1.88.28.58.19,1.09.47,1.54.83.45.36.81.8,1.09,1.33.28.52.46,1.12.54,1.8Z"/>
    <path class="cls-2" d="m77.39,55.1v-2.03h9.56v2.03h-3.56v9.61h-2.43v-9.61h-3.56Z"/>
  </g>
</svg>